<svg id="Layer_1" data-name="Layer 1" xmlns="http://www.w3.org/2000/svg" width="111.63" height="107.04" viewBox="0 0 111.63 107.04"><defs><style>.cls-1,.cls-5{fill:none;}.cls-1,.cls-2,.cls-3,.cls-4{stroke:#000;}.cls-1,.cls-2,.cls-3,.cls-4,.cls-5{stroke-miterlimit:10;}.cls-2{fill:#afbda4;}.cls-3,.cls-4{fill:#dbe8ca;}.cls-4{stroke-width:0.5px;}.cls-5{stroke:#495645;stroke-width:3px;}</style></defs><path class="cls-1" d="M21.14,76.21a49.13,49.13,0,0,1,3.52-57.77"/><path class="cls-1" d="M33,10.51a48.84,48.84,0,0,1,78.15,39.23A48.88,48.88,0,0,1,41.92,94.31"/><path class="cls-2" d="M25.69,14A8.54,8.54,0,0,0,23.47,9.5,25.3,25.3,0,0,0,19.6,6.15l-2.66-2a14.15,14.15,0,0,0-1.39,4,8.61,8.61,0,0,0,2.49,7c1.54,1.61,3.95,3.59,6.34,3.44,1.25-.08,2.46-.74,3.71-.92a15.27,15.27,0,0,1,4.91.15A24,24,0,0,1,40.87,21a3.58,3.58,0,0,0-2.33.87,10.39,10.39,0,0,1-7.48,1.34,10,10,0,0,1-5.7-3.31C24,18.16,26,16.25,25.69,14Z"/><path class="cls-2" d="M14.44,39.51a21.4,21.4,0,0,1-2.66-3.75,13,13,0,0,1-1.41-3.43c-.34-1.45-.34-3-.7-4.42A9.32,9.32,0,0,0,2,21.06c1.26.87,1.33,2.65,1.62,4.16.68,3.58,4,8.39,7.46,9.45"/><path class="cls-2" d="M13.79,44.11a9.39,9.39,0,0,0,5.75,1.33,10.14,10.14,0,0,1,1.35,0A4.5,4.5,0,0,1,23.68,47a12.69,12.69,0,0,1,1.78,2.73c-1.69-.23-3.49.28-5.11-.3a5.69,5.69,0,0,1-3.25-4.08"/><path class="cls-2" d="M7.61,51.28c-2.08-.43-4.27-.14-6.31-.73a9.81,9.81,0,0,0,10.64,6.52C16.78,56.39,9.55,51.69,7.61,51.28Z"/><path class="cls-2" d="M17.79,57.2c.6-.24,1.24-.35,1.86-.56a6.44,6.44,0,0,0,2.88-2,5.73,5.73,0,0,1-1.43,6.58c-1.21,1-4.79,2.21-6.14.7S16.39,57.73,17.79,57.2Z"/><path class="cls-2" d="M18.35,71.15a17.26,17.26,0,0,1-2.78-.41,5.51,5.51,0,0,1-1.82-.7,9.25,9.25,0,0,1-2-2.28,11.6,11.6,0,0,0-11-4.21,15.52,15.52,0,0,0,3,5.42,9.07,9.07,0,0,0,5.61,2.58,13.45,13.45,0,0,0,6.17-.94"/><path class="cls-2" d="M14.53,39a1.86,1.86,0,0,0-.09-.87A6.86,6.86,0,0,0,14,36.42a11.1,11.1,0,0,1-1-4.27,2.43,2.43,0,0,0-.11-.85c-.08-.24-.25-.45-.35-.68a2.59,2.59,0,0,1-.13-1.3,12.41,12.41,0,0,1,1.18-4.23,11.44,11.44,0,0,1,.74,3.35,6.78,6.78,0,0,1-1.4,4.14"/><path class="cls-2" d="M18.78,72a3.46,3.46,0,0,0,1.84-2.07A15.4,15.4,0,0,0,21,68.27a12.9,12.9,0,0,1,2.16-4.38A10.72,10.72,0,0,1,24,66.52a3.57,3.57,0,0,1-.57,2.65,4.45,4.45,0,0,1-3,1.45c-.09-.07,0,0-.06-.05"/><path class="cls-2" d="M13.09,46.13h.13c-.17-.49-.39-1-.56-1.46a17.62,17.62,0,0,0-.75-1.86A10.78,10.78,0,0,0,7.75,38.5a23.48,23.48,0,0,0-5.6-2.32c.27,2-.07,4.21,1.08,5.87a6.65,6.65,0,0,0,3,2.1,30.93,30.93,0,0,0,6.29,2C12.84,46.24,12.85,46.41,13.09,46.13Z"/><path class="cls-2" d="M19.63,25.91a4.79,4.79,0,0,0,2.65.12,10.32,10.32,0,0,0,1.3-.62c1.65-.78,3.58-.13,5.28.52a4.89,4.89,0,0,1-4.49,1.93A2.77,2.77,0,0,1,22.16,26"/><path class="cls-2" d="M19.9,23a3,3,0,0,0-2.34-1.4,8.83,8.83,0,0,0-2.8.27A3.11,3.11,0,0,0,19.91,23c.21.17-.13,2.17,0,2.42"/><path class="cls-3" d="M39.54,90.41a1.05,1.05,0,0,1,.07-.55c.22-.41.89-.53,1.3-.84s.62-1.16,1.29-1.44a2,2,0,0,1,1.44.08c.44.17.82.43,1.25.62s.76.28.92.57a.71.71,0,0,1,.06.41c-.11,1.7-2.07,3.06-3,4.54-.66,1.06-1.28.54-2-.33A5.73,5.73,0,0,1,39.54,90.41Z"/><path class="cls-3" d="M38.41,89a10.47,10.47,0,0,1-1.32-.6c-.65-.4-1.19-1.1-1.94-1.18a.68.68,0,0,0-.5.11c-.44.34-.1,1.09-.14,1.68a2.52,2.52,0,0,1-.86,1.43A1.8,1.8,0,0,0,33,92a1.22,1.22,0,0,0,.44.67c.77.65,1.85.55,2.82.74,1.29.26,4.84,2.78,5.38.39C42.13,91.76,39.87,89.65,38.41,89Z"/><path class="cls-3" d="M37.73,94.24c-1.15.12-2.31-.32-3.46-.19a1.34,1.34,0,0,0-1.23.83c-.21.74.46,1.5.34,2.27,0,.22-.14.43-.17.66a1.27,1.27,0,0,0,.51,1.11,2.61,2.61,0,0,0,1.1.43,5.55,5.55,0,0,0,4-.4c1-.59,3.33-3.34,3.16-4.73C41.73,92.39,38.65,94.14,37.73,94.24Z"/><path class="cls-2" d="M62.79,98.69,61.61,96.6a8.75,8.75,0,0,0-1.3-1.88c-.39-.39-.85-.71-1.23-1.1a5.3,5.3,0,0,1-1.39-3.34,11.38,11.38,0,0,1,.44-3.66A6.42,6.42,0,0,1,62,91.85a2.51,2.51,0,0,1-.08,1,3,3,0,0,1-.39.73L60.62,95"/><path class="cls-2" d="M58.51,98.73l.13.13c-.51,1-1,2-1.51,3.06a1.16,1.16,0,0,1-.25.36,1.47,1.47,0,0,1-.54.2A2.41,2.41,0,0,0,55,104.17a7.88,7.88,0,0,1-.78,2.13,5,5,0,0,0,3-1.33c.78-.93,1-1.45.29-2.43,0,.14-.18-.68-.14-.55"/><path class="cls-2" d="M84.29,93.58c-1.69-.36-3.54-.82-4.56-2.22-1.17-1.62-.83-4-1.86-5.66.86,1.4,2.46,2.27,3.15,3.77a6.38,6.38,0,0,1,.41,3.07c0,.08,0,.19.08.23s.13-.15,0-.13"/><path class="cls-2" d="M80.68,97.37c.11,1.11.82,2.18.54,3.26a6,6,0,0,0,2.11-3c.16-.75,0-2.75-1-3S80.59,96.49,80.68,97.37Z"/><path class="cls-2" d="M51.64,97.46A4.77,4.77,0,0,1,50.73,93c.54,1.1,2,1.68,2.2,2.88.18.9-.2,2.18-1.25,1.65.13-.08.07.15.19.07"/><path class="cls-2" d="M69,92.7a3.93,3.93,0,0,1,2.33,2.54c.34,1.19.15,3.93-1.32,2.32C68.91,96.42,68.72,94.14,69,92.7Z"/><path class="cls-4" d="M31.48,8.7a.47.47,0,0,0-.43.21c-.1.2.06.44.22.6a3.24,3.24,0,0,0,1.08.79c-.27,0-.84,0-1.43,0a1.1,1.1,0,0,0-.57.08.38.38,0,0,0-.19.48.49.49,0,0,0,.28.2,2.47,2.47,0,0,0,2.43-.51,3.19,3.19,0,0,0-1.1,2.19.54.54,0,0,0,.05.33.43.43,0,0,0,.49.16,1,1,0,0,0,.43-.32,2.36,2.36,0,0,0,.13-2.36,3,3,0,0,0,.69.89,1.24,1.24,0,0,0,1,.33.79.79,0,0,0,.66-.75.8.8,0,0,0-.42-.63,1.48,1.48,0,0,0-.78-.16,2.46,2.46,0,0,0-1.09.29h0a2.82,2.82,0,0,0,1.15-1.75c0-.14,0-.31-.08-.39a.36.36,0,0,0-.29,0c-.71.14-.86,1.56-.84,2.21C33.13,11.09,32.05,8.68,31.48,8.7Z"/><path class="cls-4" d="M14.29,63.7a.51.51,0,0,0-.44.21c-.1.21.06.44.23.6a3.23,3.23,0,0,0,1.07.8c-.26,0-.84,0-1.42,0a1.09,1.09,0,0,0-.57.08.38.38,0,0,0-.2.48.52.52,0,0,0,.28.2,2.46,2.46,0,0,0,2.43-.51,3.21,3.21,0,0,0-1.1,2.19.54.54,0,0,0,.06.33.43.43,0,0,0,.48.16.86.86,0,0,0,.43-.32,2.36,2.36,0,0,0,.13-2.36,3.28,3.28,0,0,0,.69.88,1.22,1.22,0,0,0,1,.33.72.72,0,0,0,.24-1.37,1.47,1.47,0,0,0-.77-.17,2.66,2.66,0,0,0-1.1.3s0,0,0,0a2.78,2.78,0,0,0,1.15-1.74.38.38,0,0,0-.08-.4.39.39,0,0,0-.28,0c-.72.15-.87,1.56-.85,2.22C15.93,66.09,14.85,63.68,14.29,63.7Z"/><path class="cls-4" d="M74.65,94.62a.49.49,0,0,0-.43.22c-.11.2.06.43.22.6a3.35,3.35,0,0,0,1.07.79c-.26,0-.84,0-1.42,0a1.09,1.09,0,0,0-.57.08.38.38,0,0,0-.2.48.52.52,0,0,0,.28.2A2.48,2.48,0,0,0,76,96.49a3.18,3.18,0,0,0-1.11,2.19A.63.63,0,0,0,75,99a.42.42,0,0,0,.48.16.86.86,0,0,0,.43-.32A2.36,2.36,0,0,0,76,96.49a3.1,3.1,0,0,0,.68.89,1.26,1.26,0,0,0,1,.33A.72.72,0,0,0,78,96.33a1.55,1.55,0,0,0-.77-.17,2.66,2.66,0,0,0-1.1.3h0a2.76,2.76,0,0,0,1.15-1.75.38.38,0,0,0-.08-.4.33.33,0,0,0-.28,0c-.72.14-.86,1.56-.84,2.21C76.3,97,75.22,94.6,74.65,94.62Z"/><path class="cls-2" d="M45.44,3.57c1,1.43,2,3.05,1.77,4.77-.27,2-2.12,3.43-2.56,5.38.34-1.61-.21-3.35.32-4.91a6.32,6.32,0,0,1,1.82-2.5c.07-.06.13-.14.1-.22s-.19,0-.12,0"/><path class="cls-2" d="M39.73,5.77a4.8,4.8,0,0,1-.91-4.43c.55,1.1,2,1.68,2.2,2.88.18.9-.2,2.18-1.24,1.65.12-.08.06.15.19.06"/><path class="cls-2" d="M53.75,2.16a4.74,4.74,0,0,1-.9,4.42C52.78,5.36,51.7,4.26,52,3.07c.19-.9,1-1.93,1.79-1-.15,0,0-.16-.15-.13"/><path class="cls-2" d="M36.87,7.76A2.72,2.72,0,0,0,35.44,7a5.32,5.32,0,0,0-.89,0c-1.13,0-2-.87-2.76-1.71a2.88,2.88,0,0,1,3,0A1.77,1.77,0,0,1,35.51,7"/><line class="cls-5" x1="42.62" y1="32.87" x2="77.63" y2="63.53"/><line class="cls-5" x1="77.75" y1="32.93" x2="42.73" y2="63.59"/></svg>