<svg id="Layer_1" data-name="Layer 1" xmlns="http://www.w3.org/2000/svg" width="423.52" height="404.06" viewBox="0 0 423.52 404.06"><defs><style>.cls-1,.cls-4{fill:none;}.cls-1,.cls-2,.cls-3{stroke:#000;}.cls-1,.cls-2,.cls-3,.cls-4{stroke-miterlimit:10;}.cls-1{stroke-width:3px;}.cls-2{fill:#afbda4;}.cls-3{fill:#dbe8ca;}.cls-4{stroke:#495645;stroke-width:7px;}</style></defs><path class="cls-1" d="M78.6,289.93A187.08,187.08,0,0,1,92.09,69.47"/><path class="cls-1" d="M123.9,39.21A186.16,186.16,0,0,1,236,1.9c103.28,0,187,83.73,187,187s-83.72,187-187,187A186.42,186.42,0,0,1,158.14,359"/><path class="cls-2" d="M96,52.67c-.78-6.49-4.16-12.44-8.49-17.33s-9.59-8.85-14.81-12.77L62.55,14.93c-2.29,4.85-4.6,9.8-5.35,15.12C55.85,39.7,60,49.6,66.75,56.63c5.9,6.13,15.13,13.7,24.25,13.12,4.78-.31,9.41-2.81,14.21-3.48a57.71,57.71,0,0,1,18.77.56c10.71,2,20.79,6.63,30.12,12.27-3.21-.52-6.16,1.63-8.92,3.34a39.9,39.9,0,0,1-28.62,5.11c-8.08-1.63-16.61-6.1-21.81-12.64S97,61.1,96,52.67Z"/><path class="cls-2" d="M53,149.85a82,82,0,0,1-10.19-14.28,51,51,0,0,1-5.38-13.11c-1.3-5.55-1.3-11.34-2.67-16.87A35.7,35.7,0,0,0,5.21,79.44c4.82,3.32,5.08,10.15,6.18,15.9C14,109,26.65,127.35,40,131.4"/><path class="cls-2" d="M50.49,167.4c7.19,4.38,13.6,5.44,22,5.09a36.91,36.91,0,0,1,5.15-.07c4.15.42,7.88,2.86,10.69,5.93a51,51,0,0,1,6.81,10.45c-6.49-.91-13.37,1-19.55-1.16-6.52-2.32-10.74-8.87-12.45-15.58"/><path class="cls-2" d="M26.82,194.79c-7.94-1.66-16.33-.55-24.13-2.82a37.54,37.54,0,0,0,40.71,24.9C61.91,214.28,34.24,196.34,26.82,194.79Z"/><path class="cls-2" d="M65.77,217.35c2.31-.89,4.78-1.32,7.12-2.11a24.63,24.63,0,0,0,11-7.61,21.82,21.82,0,0,1-5.46,25.12c-4.64,3.95-18.35,8.41-23.5,2.67S60.44,219.41,65.77,217.35Z"/><path class="cls-2" d="M67.92,270.59A65.67,65.67,0,0,1,57.29,269a21.24,21.24,0,0,1-7-2.65c-3.28-2.15-5.35-5.64-7.76-8.73a44.42,44.42,0,0,0-41.89-16c2.86,7.39,5.86,15,11.39,20.68s13.48,9,21.47,9.85a52.26,52.26,0,0,0,23.63-3.58"/><path class="cls-2" d="M53.32,147.74c.28-1.23-.13-2.1-.35-3.34a26.56,26.56,0,0,0-1.86-6.32,42.44,42.44,0,0,1-3.87-16.31,9.85,9.85,0,0,0-.42-3.25c-.34-.91-1-1.7-1.36-2.59a9.86,9.86,0,0,1-.47-5A46.7,46.7,0,0,1,49.5,94.83c1.35,4.17,2.72,8.42,2.83,12.8S50.24,120.47,47,123.4"/><path class="cls-2" d="M69.56,273.78a13.42,13.42,0,0,0,7.07-7.9,55.42,55.42,0,0,0,1.27-6.28c1.29-6.13,4.82-11.51,8.29-16.72A40.54,40.54,0,0,1,89.37,253,13.73,13.73,0,0,1,87.19,263c-2.63,3.48-7.16,4.9-11.47,5.54-.32-.28.09.1-.23-.18"/><path class="cls-2" d="M47.8,175.13h.52c-.66-1.86-1.51-3.72-2.17-5.57a66.3,66.3,0,0,0-2.85-7.11C39.85,155.51,34,150,27.35,146s-14-6.62-21.4-8.83c1,7.61-.29,16.08,4.1,22.39,2.68,3.85,7,6.14,11.33,8a119.72,119.72,0,0,0,24.08,7.68C46.84,175.54,46.87,176.19,47.8,175.13Z"/><path class="cls-2" d="M72.84,98c3.17,1,7,1.46,10.13.45a37.12,37.12,0,0,0,5-2.35c6.29-3,13.68-.5,20.17,2-4.48,5.66-9.95,7.81-17.16,7.36-3.32-.2-7.86-3.73-8.48-7"/><path class="cls-2" d="M73.85,86.8c-1.74-3.15-5.36-4.9-8.95-5.32s-7.18.31-10.72,1a11.93,11.93,0,0,0,19.71,4.36c.8.66-.5,8.28-.06,9.22"/><path class="cls-3" d="M149,344.11a3.48,3.48,0,0,1,.25-2.09c.84-1.57,3.39-2,5-3.24,2.09-1.58,2.38-4.4,5-5.48a7.62,7.62,0,0,1,5.49.29c1.69.67,3.14,1.67,4.81,2.39,1.33.57,2.91,1.07,3.5,2.15a2.72,2.72,0,0,1,.25,1.56c-.45,6.5-7.92,11.72-11.43,17.33-2.52,4-4.88,2.09-7.68-1.25A21.72,21.72,0,0,1,149,344.11Z"/><path class="cls-3" d="M144.7,338.71a40.08,40.08,0,0,1-5-2.26c-2.5-1.55-4.58-4.22-7.44-4.52a2.62,2.62,0,0,0-1.89.41c-1.69,1.31-.4,4.16-.55,6.4s-1.83,3.9-3.28,5.48-2.89,3.66-2.4,5.83a4.89,4.89,0,0,0,1.7,2.58c3,2.48,7.09,2.08,10.78,2.81,5,1,18.54,10.61,20.62,1.5C158.94,349.25,150.27,341.19,144.7,338.71Z"/><path class="cls-3" d="M142.09,358.71c-4.4.47-8.82-1.2-13.23-.72-1.93.21-4.09,1.11-4.7,3.18-.83,2.82,1.76,5.71,1.29,8.63-.14.87-.54,1.66-.65,2.53a4.84,4.84,0,0,0,2,4.26A9.94,9.94,0,0,0,131,378.2c5.1,1,10.62,1.25,15.18-1.51,3.75-2.27,12.76-12.74,12.1-18.07C157.4,351.64,145.62,358.34,142.09,358.71Z"/><path class="cls-2" d="M238,375.71l-4.5-8a32.5,32.5,0,0,0-5-7.21c-1.48-1.49-3.23-2.67-4.71-4.17a20.28,20.28,0,0,1-5.32-12.76,43.24,43.24,0,0,1,1.69-14,24.41,24.41,0,0,1,14.76,19.94,9.79,9.79,0,0,1-.27,3.89,12.26,12.26,0,0,1-1.5,2.81l-3.45,5.31"/><path class="cls-2" d="M221.61,375.83l.52.52c-2,4-3.82,7.68-5.79,11.66a3.75,3.75,0,0,1-1,1.4,6.08,6.08,0,0,1-2.06.76c-2.76.85-4.39,3.7-5.27,6.45s-1.34,5.72-3,8.11c4.13-.85,8.58-1.87,11.31-5.09,3-3.52,3.88-5.52,1.12-9.24.13.51-.69-2.6-.56-2.09"/><path class="cls-2" d="M320.28,356.21c-6.48-1.38-13.57-3.13-17.46-8.5-4.49-6.18-3.17-15.06-7.11-21.6,3.3,5.36,9.41,8.7,12.07,14.4,1.68,3.6,1.77,7.74,1.54,11.71,0,.33,0,.74.31.87s.51-.54.18-.47"/><path class="cls-2" d="M306.46,370.64c.42,4.24,3.13,8.34,2.08,12.46,3.64-3.11,7-6.93,8-11.61.64-2.85,0-10.47-3.92-11.24C308.25,359.37,306.12,367.3,306.46,370.64Z"/><path class="cls-2" d="M195.31,371a18.14,18.14,0,0,1-3.46-16.9c2.08,4.19,7.5,6.4,8.41,11,.68,3.42-.77,8.31-4.77,6.31.48-.33.24.56.73.23"/><path class="cls-2" d="M261.56,352.82a15.09,15.09,0,0,1,8.91,9.7c1.33,4.54.58,15-5,8.88C261.42,367,260.69,358.32,261.56,352.82Z"/><path class="cls-2" d="M66.76,302.16c-.59,3.25-.13,6.59-.17,9.9a32.15,32.15,0,0,1-3.21,13.62c5.82-.19,12.23-.61,16.43-4.65,3.71-3.57,4.72-9.22,4.06-14.33s-2.76-9.89-4.46-14.75a5.62,5.62,0,0,1-.46-3,5.84,5.84,0,0,1,2-2.84c2.86-2.71,5.9-5.45,9.66-6.65,6.78-2.15,14.48,1.13,21.15-1.35-2.81,5.72-7.13,10.87-12.85,13.66-7.72,3.77-12.35.49-19.84-.78C72.8,290,67.79,296.5,66.76,302.16Z"/><path class="cls-3" d="M118.18,32.28a1.85,1.85,0,0,0-1.65.8c-.39.78.23,1.68.85,2.3a12.52,12.52,0,0,0,4.11,3c-1,0-3.21.17-5.45.05a4.12,4.12,0,0,0-2.18.29,1.45,1.45,0,0,0-.74,1.84,1.91,1.91,0,0,0,1.06.77,9.54,9.54,0,0,0,9.31-2,12.18,12.18,0,0,0-4.22,8.35,2.25,2.25,0,0,0,.21,1.26,1.68,1.68,0,0,0,1.86.62A3.38,3.38,0,0,0,123,48.4c2-2.49,1.77-6.1.51-9a12.18,12.18,0,0,0,2.63,3.38A4.75,4.75,0,0,0,130,44a3,3,0,0,0,2.53-2.85,3,3,0,0,0-1.63-2.41,5.78,5.78,0,0,0-3-.63,9.79,9.79,0,0,0-4.19,1.14s0,0,0,0a10.58,10.58,0,0,0,4.4-6.67,1.48,1.48,0,0,0-.3-1.51,1.39,1.39,0,0,0-1.08-.14c-2.75.55-3.31,5.95-3.24,8.45C124.49,41.4,120.36,32.2,118.18,32.28Z"/><path class="cls-3" d="M52.38,242.18a1.87,1.87,0,0,0-1.65.81c-.4.77.22,1.67.84,2.29a12.8,12.8,0,0,0,4.11,3c-1,0-3.21.17-5.45.05a4.13,4.13,0,0,0-2.18.29,1.44,1.44,0,0,0-.74,1.83,1.91,1.91,0,0,0,1.06.77,9.53,9.53,0,0,0,9.31-1.94,12.22,12.22,0,0,0-4.22,8.34,2.17,2.17,0,0,0,.22,1.26,1.65,1.65,0,0,0,1.85.62,3.29,3.29,0,0,0,1.65-1.23c2-2.48,1.76-6.1.5-9a12,12,0,0,0,2.63,3.37,4.76,4.76,0,0,0,3.85,1.26,3,3,0,0,0,2.54-2.85,3.1,3.1,0,0,0-1.63-2.41,5.92,5.92,0,0,0-3-.63,9.94,9.94,0,0,0-4.19,1.14s0,0,0,0a10.52,10.52,0,0,0,4.4-6.66A1.49,1.49,0,0,0,62,241a1.37,1.37,0,0,0-1.09-.15c-2.75.55-3.31,6-3.24,8.46C58.68,251.31,54.55,242.1,52.38,242.18Z"/><path class="cls-3" d="M283.38,360.18a1.87,1.87,0,0,0-1.65.81c-.4.77.22,1.67.84,2.29a12.8,12.8,0,0,0,4.11,3c-1,0-3.21.17-5.45.05a4.13,4.13,0,0,0-2.18.29,1.44,1.44,0,0,0-.74,1.83,1.91,1.91,0,0,0,1.06.77,9.53,9.53,0,0,0,9.31-1.94,12.22,12.22,0,0,0-4.22,8.34,2.17,2.17,0,0,0,.22,1.26,1.65,1.65,0,0,0,1.85.62,3.29,3.29,0,0,0,1.65-1.23c2-2.48,1.76-6.1.5-9a12,12,0,0,0,2.63,3.37,4.76,4.76,0,0,0,3.85,1.26,3,3,0,0,0,2.54-2.85,3.1,3.1,0,0,0-1.63-2.41,5.92,5.92,0,0,0-3-.63,9.94,9.94,0,0,0-4.19,1.14s0,0,0,0a10.52,10.52,0,0,0,4.4-6.66A1.49,1.49,0,0,0,293,359a1.37,1.37,0,0,0-1.09-.15c-2.75.55-3.31,6-3.24,8.46C289.68,369.31,285.55,360.1,283.38,360.18Z"/><path class="cls-2" d="M171.6,12.71c3.74,5.47,7.65,11.63,6.76,18.2-1,7.57-8.1,13.08-9.78,20.53,1.32-6.15-.8-12.79,1.22-18.75,1.27-3.77,4.07-6.81,7-9.53.24-.22.5-.54.37-.84s-.74,0-.46.21"/><path class="cls-2" d="M149.75,21.1a18.14,18.14,0,0,1-3.47-16.9c2.08,4.19,7.51,6.41,8.41,11,.68,3.42-.76,8.32-4.76,6.32.48-.33.24.55.72.22"/><path class="cls-2" d="M203.42,7.31a18.15,18.15,0,0,1-3.48,16.9c-.26-4.67-4.37-8.84-3.39-13.42.72-3.41,4-7.34,6.87-3.92-.58.11,0-.61-.58-.5"/><path class="cls-2" d="M138.79,28.71a10.22,10.22,0,0,0-5.46-2.95,23,23,0,0,0-3.42.08c-4.32.11-7.69-3.32-10.56-6.52a11.07,11.07,0,0,1,11.57.16c1.77,1,3.27,4.3,2.68,6.41"/><line class="cls-4" x1="126.45" y1="138.63" x2="328.95" y2="139.13"/><line class="cls-4" x1="128.72" y1="239.29" x2="331.22" y2="239.79"/><line class="cls-4" x1="126.72" y1="190.29" x2="329.22" y2="190.79"/></svg>