<svg id="Layer_1" data-name="Layer 1" xmlns="http://www.w3.org/2000/svg" width="423.52" height="404.06" viewBox="0 0 423.52 404.06"><defs><style>.cls-1,.cls-4{fill:none;}.cls-1,.cls-2,.cls-3{stroke:#000;}.cls-1,.cls-2,.cls-3,.cls-4{stroke-miterlimit:10;}.cls-1{stroke-width:3px;}.cls-2{fill:#afbda4;}.cls-3{fill:#dbe8ca;}.cls-4{stroke:#495645;stroke-width:7px;}</style></defs><path class="cls-1" d="M78.25,287.89A187.08,187.08,0,0,1,91.74,67.43"/><path class="cls-1" d="M123.55,37.16A186.19,186.19,0,0,1,235.64-.14c103.27,0,187,83.72,187,187s-83.73,187-187,187a186.31,186.31,0,0,1-77.86-16.93"/><path class="cls-2" d="M95.67,50.63c-.78-6.49-4.17-12.44-8.5-17.33s-9.59-8.85-14.81-12.78L62.2,12.88c-2.29,4.86-4.61,9.81-5.35,15.13-1.36,9.65,2.79,19.55,9.54,26.57,5.9,6.14,15.13,13.71,24.26,13.12,4.77-.3,9.4-2.8,14.21-3.47a57.71,57.71,0,0,1,18.77.56c10.7,2,20.78,6.63,30.11,12.27-3.21-.52-6.15,1.63-8.92,3.34a39.94,39.94,0,0,1-28.62,5.11c-8.07-1.64-16.6-6.1-21.81-12.64S96.68,59.06,95.67,50.63Z"/><path class="cls-2" d="M52.61,147.81a81.87,81.87,0,0,1-10.19-14.28A51.1,51.1,0,0,1,37,120.42c-1.3-5.55-1.3-11.35-2.68-16.88A35.69,35.69,0,0,0,4.86,77.4C9.68,80.72,9.93,87.54,11,93.29c2.63,13.67,15.26,32,28.58,36.07"/><path class="cls-2" d="M50.14,165.36c7.19,4.38,13.59,5.44,22,5.09a37.06,37.06,0,0,1,5.16-.07c4.14.42,7.88,2.85,10.69,5.93a51.86,51.86,0,0,1,6.81,10.45c-6.5-.91-13.37,1-19.55-1.16-6.53-2.33-10.74-8.87-12.46-15.58"/><path class="cls-2" d="M26.47,192.75c-7.94-1.66-16.34-.55-24.13-2.82A37.54,37.54,0,0,0,43,214.83C61.56,212.23,33.89,194.3,26.47,192.75Z"/><path class="cls-2" d="M65.42,215.31c2.31-.89,4.77-1.32,7.12-2.12a24.45,24.45,0,0,0,11-7.6,21.82,21.82,0,0,1-5.46,25.12c-4.64,3.95-18.35,8.41-23.5,2.67S60.08,217.36,65.42,215.31Z"/><path class="cls-2" d="M67.56,268.55A68,68,0,0,1,56.94,267a21.38,21.38,0,0,1-7-2.65c-3.27-2.15-5.35-5.64-7.76-8.73a44.41,44.41,0,0,0-41.89-16c2.87,7.39,5.87,15,11.4,20.67s13.47,9.05,21.47,9.86a52.15,52.15,0,0,0,23.63-3.59"/><path class="cls-2" d="M53,145.69c.28-1.22-.14-2.09-.35-3.33A26.77,26.77,0,0,0,50.76,136a42.16,42.16,0,0,1-3.87-16.3,10.41,10.41,0,0,0-.42-3.25c-.34-.92-1-1.7-1.37-2.59a10,10,0,0,1-.47-5,46.86,46.86,0,0,1,4.51-16.15C50.5,97,51.87,101.2,52,105.59s-2.1,12.84-5.36,15.77"/><path class="cls-2" d="M69.21,271.74a13.42,13.42,0,0,0,7.06-7.91,57.25,57.25,0,0,0,1.28-6.28c1.28-6.12,4.82-11.5,8.29-16.71A41,41,0,0,1,89,250.91,13.74,13.74,0,0,1,86.83,261c-2.62,3.47-7.15,4.9-11.46,5.53-.32-.28.09.11-.23-.17"/><path class="cls-2" d="M47.44,173.08H48c-.66-1.85-1.5-3.71-2.16-5.57a65.14,65.14,0,0,0-2.86-7.11C39.5,153.47,33.62,148,27,144s-14-6.62-21.41-8.84c1,7.62-.29,16.08,4.1,22.4,2.68,3.85,7,6.13,11.34,8a119.63,119.63,0,0,0,24.07,7.68C46.49,173.5,46.51,174.15,47.44,173.08Z"/><path class="cls-2" d="M72.49,95.91c3.16,1,7,1.46,10.13.45a37.66,37.66,0,0,0,5-2.35c6.29-3,13.68-.5,20.18,2-4.49,5.66-10,7.81-17.16,7.36-3.32-.2-7.87-3.73-8.48-7"/><path class="cls-2" d="M73.5,84.76c-1.75-3.15-5.37-4.91-9-5.32s-7.19.3-10.72,1a11.92,11.92,0,0,0,19.71,4.35c.79.66-.5,8.29-.07,9.23"/><path class="cls-3" d="M148.68,342.07a3.6,3.6,0,0,1,.25-2.1c.84-1.56,3.4-2,5-3.23,2.1-1.58,2.39-4.4,5-5.48a7.5,7.5,0,0,1,5.48.29c1.7.67,3.15,1.66,4.81,2.38,1.33.58,2.92,1.07,3.51,2.16a2.88,2.88,0,0,1,.25,1.56c-.45,6.49-7.92,11.71-11.43,17.33-2.53,4-4.88,2.09-7.68-1.25A21.77,21.77,0,0,1,148.68,342.07Z"/><path class="cls-3" d="M144.35,336.67a40.08,40.08,0,0,1-5-2.26c-2.5-1.55-4.58-4.22-7.44-4.53a2.61,2.61,0,0,0-1.89.42c-1.7,1.31-.41,4.15-.56,6.4s-1.82,3.9-3.28,5.48-2.89,3.66-2.39,5.82a4.85,4.85,0,0,0,1.7,2.58c2.95,2.49,7.09,2.09,10.77,2.82,5,1,18.54,10.61,20.62,1.49C158.59,347.21,149.92,339.15,144.35,336.67Z"/><path class="cls-3" d="M141.74,356.67c-4.41.46-8.83-1.2-13.23-.73-1.93.21-4.1,1.12-4.71,3.19-.83,2.82,1.77,5.71,1.3,8.63-.14.87-.54,1.66-.65,2.53a4.8,4.8,0,0,0,1.94,4.25,10,10,0,0,0,4.22,1.62c5.1,1,10.63,1.24,15.19-1.52,3.74-2.26,12.75-12.73,12.1-18.06C157,349.6,145.27,356.3,141.74,356.67Z"/><path class="cls-2" d="M237.63,373.67l-4.51-8a32.8,32.8,0,0,0-5-7.21c-1.48-1.49-3.24-2.68-4.71-4.17a20.22,20.22,0,0,1-5.32-12.76,42.92,42.92,0,0,1,1.68-14,24.44,24.44,0,0,1,14.77,19.94,9.63,9.63,0,0,1-.28,3.89,11.88,11.88,0,0,1-1.5,2.81l-3.45,5.3"/><path class="cls-2" d="M221.25,373.79l.52.52c-2,4-3.81,7.68-5.78,11.66a4,4,0,0,1-1,1.4,6.24,6.24,0,0,1-2,.76c-2.77.84-4.4,3.69-5.28,6.45s-1.33,5.72-3,8.1c4.13-.84,8.58-1.87,11.31-5.08,3-3.53,3.88-5.52,1.12-9.24.13.51-.69-2.6-.56-2.09"/><path class="cls-2" d="M319.93,354.16c-6.49-1.38-13.57-3.13-17.47-8.49-4.49-6.18-3.17-15.06-7.1-21.6,3.3,5.36,9.41,8.69,12.07,14.4,1.68,3.6,1.76,7.73,1.53,11.71,0,.33,0,.74.31.86s.51-.53.19-.47"/><path class="cls-2" d="M306.1,368.6c.42,4.24,3.13,8.33,2.09,12.46,3.64-3.12,7-6.93,8-11.61.64-2.85,0-10.47-3.92-11.24C307.89,357.32,305.77,365.26,306.1,368.6Z"/><path class="cls-2" d="M195,369a18.09,18.09,0,0,1-3.46-16.89c2.07,4.18,7.5,6.4,8.4,11,.68,3.42-.76,8.31-4.76,6.31.48-.33.24.56.72.23"/><path class="cls-2" d="M261.2,350.78a15.11,15.11,0,0,1,8.92,9.69c1.32,4.55.58,15-5.05,8.89C261.06,365,260.34,356.28,261.2,350.78Z"/><path class="cls-3" d="M117.83,30.24a1.85,1.85,0,0,0-1.65.8c-.4.78.22,1.67.84,2.29a12.55,12.55,0,0,0,4.12,3c-1,0-3.22.17-5.45,0a4.11,4.11,0,0,0-2.18.29,1.45,1.45,0,0,0-.75,1.84,1.94,1.94,0,0,0,1.06.77,9.55,9.55,0,0,0,9.32-2,12.18,12.18,0,0,0-4.22,8.34,2.29,2.29,0,0,0,.21,1.27,1.66,1.66,0,0,0,1.85.61,3.25,3.25,0,0,0,1.65-1.23c2-2.48,1.77-6.09.51-9a11.81,11.81,0,0,0,2.63,3.38A4.74,4.74,0,0,0,129.61,42a3,3,0,0,0,2.54-2.84,3.07,3.07,0,0,0-1.63-2.42,5.81,5.81,0,0,0-3-.62,9.69,9.69,0,0,0-4.19,1.14,0,0,0,1,1,0,0,10.57,10.57,0,0,0,4.4-6.67,1.49,1.49,0,0,0-.29-1.51,1.33,1.33,0,0,0-1.09-.14c-2.74.55-3.31,5.95-3.23,8.45C124.14,39.36,120,30.16,117.83,30.24Z"/><path class="cls-3" d="M52,240.14a1.9,1.9,0,0,0-1.65.8c-.4.78.22,1.68.85,2.3a12.69,12.69,0,0,0,4.11,3c-1,0-3.21.17-5.45,0a4.22,4.22,0,0,0-2.18.29,1.46,1.46,0,0,0-.75,1.84,2,2,0,0,0,1.07.77,9.54,9.54,0,0,0,9.31-1.94,12.16,12.16,0,0,0-4.22,8.34,2.25,2.25,0,0,0,.21,1.26,1.66,1.66,0,0,0,1.85.62,3.36,3.36,0,0,0,1.65-1.23c2-2.49,1.77-6.1.51-9A12,12,0,0,0,60,250.64a4.74,4.74,0,0,0,3.84,1.26,3,3,0,0,0,2.54-2.85,3,3,0,0,0-1.63-2.41,5.8,5.8,0,0,0-3-.63,9.94,9.94,0,0,0-4.19,1.14s0,0,0,0a10.59,10.59,0,0,0,4.4-6.66,1.49,1.49,0,0,0-.3-1.51,1.37,1.37,0,0,0-1.09-.15c-2.74.55-3.3,5.95-3.23,8.46C58.33,249.27,54.2,240.06,52,240.14Z"/><path class="cls-3" d="M283,358.14a1.9,1.9,0,0,0-1.65.8c-.4.78.22,1.68.85,2.3a12.69,12.69,0,0,0,4.11,3c-1,0-3.21.17-5.45,0a4.22,4.22,0,0,0-2.18.29,1.46,1.46,0,0,0-.75,1.84,2,2,0,0,0,1.07.77,9.54,9.54,0,0,0,9.31-1.94,12.16,12.16,0,0,0-4.22,8.34,2.25,2.25,0,0,0,.21,1.26,1.66,1.66,0,0,0,1.85.62,3.36,3.36,0,0,0,1.65-1.23c2-2.49,1.77-6.1.51-9a12,12,0,0,0,2.63,3.37,4.74,4.74,0,0,0,3.84,1.26,3,3,0,0,0,2.54-2.85,3,3,0,0,0-1.63-2.41,5.8,5.8,0,0,0-3-.63,9.94,9.94,0,0,0-4.19,1.14s0,0,0,0a10.59,10.59,0,0,0,4.4-6.66,1.49,1.49,0,0,0-.3-1.51,1.37,1.37,0,0,0-1.09-.15c-2.74.55-3.3,5.95-3.23,8.46C289.33,367.27,285.2,358.06,283,358.14Z"/><path class="cls-2" d="M171.24,10.66C175,16.14,178.89,22.3,178,28.87c-1,7.57-8.11,13.08-9.78,20.53,1.31-6.16-.8-12.79,1.21-18.75,1.28-3.77,4.07-6.82,7-9.53.24-.22.51-.54.37-.84s-.73,0-.45.21"/><path class="cls-2" d="M149.39,19.05a18.11,18.11,0,0,1-3.46-16.89c2.08,4.19,7.5,6.4,8.41,11,.68,3.42-.77,8.31-4.77,6.31.48-.33.24.56.73.23"/><path class="cls-2" d="M203.06,5.27a18.12,18.12,0,0,1-3.47,16.9c-.26-4.67-4.37-8.85-3.4-13.42.73-3.41,4-7.34,6.87-3.92-.57.11,0-.61-.57-.5"/><path class="cls-2" d="M138.44,26.67a10.29,10.29,0,0,0-5.46-3,23,23,0,0,0-3.42.08c-4.32.11-7.69-3.32-10.56-6.52a11.07,11.07,0,0,1,11.57.16c1.77,1,3.27,4.3,2.67,6.41"/><line class="cls-4" x1="160.44" y1="122.5" x2="294.44" y2="239.49"/><line class="cls-4" x1="294.89" y1="122.71" x2="160.89" y2="239.71"/></svg>