<svg id="Layer_1" data-name="Layer 1" xmlns="http://www.w3.org/2000/svg" width="423.52" height="404.06" viewBox="0 0 423.52 404.06"><defs><style>.cls-1{fill:none;stroke-width:3px;}.cls-1,.cls-3,.cls-4{stroke:#000;stroke-miterlimit:10;}.cls-2{fill:#495645;}.cls-3{fill:#afbda4;}.cls-4{fill:#dbe8ca;}</style></defs><path class="cls-1" d="M78.63,288.52A187.07,187.07,0,0,1,92.12,68.07"/><path class="cls-1" d="M123.93,37.8A186.21,186.21,0,0,1,236,.5c103.28,0,187,83.72,187,187s-83.72,187-187,187a186.27,186.27,0,0,1-77.85-16.93"/><path class="cls-2" d="M129.37,225.34q0,6.54-3.45,9.52t-10.49,3q-7.14,0-10.53-3t-3.4-9.52V123.73c0-3.12-2.16-4.67-6.46-4.67a33.43,33.43,0,0,0-9.47,1.4,34.45,34.45,0,0,0-8.67,3.82,22.48,22.48,0,0,0-6.33,5.78,12,12,0,0,0-2.46,7.26,10.74,10.74,0,0,0,.72,4.33,6.76,6.76,0,0,0,1.66,2.43,4.31,4.31,0,0,0,1.91,1,7.68,7.68,0,0,0,1.4.21,7.37,7.37,0,0,0,3.48-.72,20,20,0,0,0,2.47-1.53l2.08-1.53a3.69,3.69,0,0,1,2.25-.72,5.8,5.8,0,0,1,2.17.46,6.18,6.18,0,0,1,2.12,1.49A8.58,8.58,0,0,1,90,145.44a10.68,10.68,0,0,1,.68,4,12.22,12.22,0,0,1-1.32,5.86,12.93,12.93,0,0,1-3.4,4.12,14,14,0,0,1-4.76,2.47,18.93,18.93,0,0,1-12.65-.6A16.13,16.13,0,0,1,63,157.46a16.52,16.52,0,0,1-3.48-5.78,20.55,20.55,0,0,1-1.19-7.05A28,28,0,0,1,61,132.18a27.45,27.45,0,0,1,7.44-9.3,41.78,41.78,0,0,1,11.51-6.5,84.21,84.21,0,0,1,14.87-4.12,151.36,151.36,0,0,1,17.46-2.17q9.3-.63,19.32-.64,24.3,0,36.79,9.31t12.49,26.72a46.19,46.19,0,0,1-2.25,15,37,37,0,0,1-6,11.25,32.18,32.18,0,0,1-8.71,7.65,37.07,37.07,0,0,1-10.2,4.21,37.51,37.51,0,0,1-10.57,1,33,33,0,0,1-9.9-2l1.19-3.65q6.38,2,10.49.13a13.25,13.25,0,0,0,6.46-6.5,37.13,37.13,0,0,0,3.23-11.81,128.33,128.33,0,0,0,.89-15.72,47.73,47.73,0,0,0-1.36-11.77,32.11,32.11,0,0,0-3.7-9.05A19.1,19.1,0,0,0,145,118.5a11.7,11.7,0,0,0-6.59-2.08,10.62,10.62,0,0,0-4.46.81,7.35,7.35,0,0,0-2.72,2,7.43,7.43,0,0,0-1.36,2.63,13.57,13.57,0,0,0-.46,2.68Z"/><path class="cls-2" d="M267.43,221.69a16.22,16.22,0,0,0,.08,1.65,5.67,5.67,0,0,0,.43,1.7,3,3,0,0,0,1,1.32,3.19,3.19,0,0,0,2,.51,4.18,4.18,0,0,0,2.89-1.15c.85-.76,1.64-1.54,2.38-2.33l2,1.78a50.44,50.44,0,0,1-3.19,4,27.23,27.23,0,0,1-4.63,4.12,26.22,26.22,0,0,1-6.2,3.27,22.18,22.18,0,0,1-7.9,1.32,19.5,19.5,0,0,1-6.5-1,14.52,14.52,0,0,1-4.68-2.63,10.37,10.37,0,0,1-2.84-3.91,12.27,12.27,0,0,1-.94-4.8v-3.82a65,65,0,0,1-8.92,8.07q-2,1.53-4.33,3a41.34,41.34,0,0,1-4.76,2.59,28.7,28.7,0,0,1-5.1,1.83,21.09,21.09,0,0,1-5.26.68,19.09,19.09,0,0,1-8.71-1.83,16,16,0,0,1-5.82-4.8,19.8,19.8,0,0,1-3.23-6.71,28.25,28.25,0,0,1-1-7.47v-52.6c0-.51,0-1.06-.08-1.65a5.74,5.74,0,0,0-.43-1.7,2.86,2.86,0,0,0-3-1.83,4.25,4.25,0,0,0-2.85,1.15,21.53,21.53,0,0,0-2.34,2.34l-2.12-1.79a48.23,48.23,0,0,1,3.19-3.95,27.28,27.28,0,0,1,4.63-4.12,26.66,26.66,0,0,1,6.24-3.27,22.27,22.27,0,0,1,7.86-1.32,19.91,19.91,0,0,1,6.54,1,13.9,13.9,0,0,1,4.68,2.63,10.8,10.8,0,0,1,2.8,3.91,12.44,12.44,0,0,1,.93,4.8v56.75a8,8,0,0,0,.39,2.43,7.85,7.85,0,0,0,1.1,2.25,5.58,5.58,0,0,0,1.83,1.65,5.1,5.1,0,0,0,2.63.64,10.67,10.67,0,0,0,4.93-1.27,23.76,23.76,0,0,0,4.5-3,34.19,34.19,0,0,0,3.53-3.44q1.48-1.69,2.16-2.55V164.42c0-.51,0-1.06-.08-1.65a5.74,5.74,0,0,0-.43-1.7,3,3,0,0,0-1-1.32,3.19,3.19,0,0,0-1.95-.51,4.25,4.25,0,0,0-2.85,1.15,21.41,21.41,0,0,0-2.33,2.34l-2.13-1.79a48.23,48.23,0,0,1,3.19-3.95,27.67,27.67,0,0,1,4.63-4.12,26.66,26.66,0,0,1,6.24-3.27,22.27,22.27,0,0,1,7.86-1.32,20,20,0,0,1,6.55,1,14,14,0,0,1,4.67,2.63,10.68,10.68,0,0,1,2.8,3.91,12.45,12.45,0,0,1,.94,4.8Z"/><path class="cls-2" d="M316,171.39q3-4,6.38-8.11a58.44,58.44,0,0,1,7.3-7.44,37.18,37.18,0,0,1,8.5-5.43,23.51,23.51,0,0,1,10-2.13,15.71,15.71,0,0,1,8.08,1.91,17.72,17.72,0,0,1,5.22,4.59,16.79,16.79,0,0,1,2.8,5.57,18.67,18.67,0,0,1,.81,4.92,33.09,33.09,0,0,1-1,7.78,29,29,0,0,1-3.31,8,35.44,35.44,0,0,1-6.24,7.65,42.79,42.79,0,0,1-9.86,6.76,291.89,291.89,0,0,0,15.55,29.09,145.08,145.08,0,0,0,14.57,20.05,56.89,56.89,0,0,0,13.47,11.6,24.68,24.68,0,0,0,12.32,3.74,8.3,8.3,0,0,0,2-.25,13.71,13.71,0,0,0,1.87-.6,18.77,18.77,0,0,0,2-.85l1.61,3q-2.3,1.26-4.67,2.42a32.66,32.66,0,0,1-5.44,2A50,50,0,0,1,391,267a76.48,76.48,0,0,1-9.52.51,41.75,41.75,0,0,1-9.89-1.19,33.79,33.79,0,0,1-9.82-4.25,55.14,55.14,0,0,1-10-8.15A91.21,91.21,0,0,1,341.38,241a186.33,186.33,0,0,1-10.91-18.6q-5.61-10.78-11.64-25.24A88.86,88.86,0,0,0,331.66,186a55.14,55.14,0,0,0,7-9.3,24.26,24.26,0,0,0,3-7.39,31,31,0,0,0,.6-5.53q0-.33-.09-1.14a3.8,3.8,0,0,0-.55-1.57,4.3,4.3,0,0,0-1.36-1.36,4.46,4.46,0,0,0-2.51-.6,10,10,0,0,0-6.37,2.68,37.75,37.75,0,0,0-6.16,6.63,64.7,64.7,0,0,0-5.31,8.49q-2.37,4.55-3.91,8.28V229a10.86,10.86,0,0,1-.38,2.64,6.13,6.13,0,0,1-1.78,2.89,11.63,11.63,0,0,1-4.08,2.33,21.5,21.5,0,0,1-7.18,1,18.8,18.8,0,0,1-7.05-1.06,9.8,9.8,0,0,1-3.78-2.51,6.52,6.52,0,0,1-1.53-3,13.44,13.44,0,0,1-.3-2.47V119.23a7.88,7.88,0,0,0-1.15-4.3,4.21,4.21,0,0,0-3.86-1.82,6,6,0,0,0-2.51.47,10.2,10.2,0,0,0-2.25,1.4l-1.7-2a50.68,50.68,0,0,1,4.33-3.19A31.17,31.17,0,0,1,288,107,39.55,39.55,0,0,1,294.1,105a29.46,29.46,0,0,1,6.8-.77,20.06,20.06,0,0,1,8.58,1.49,11.11,11.11,0,0,1,4.51,3.65,10.61,10.61,0,0,1,1.74,4.59,37.3,37.3,0,0,1,.29,4.29Z"/><path class="cls-3" d="M96.05,51.26c-.78-6.48-4.16-12.43-8.49-17.32S78,25.09,72.75,21.16L62.58,13.52c-2.29,4.86-4.6,9.81-5.35,15.13C55.88,38.3,60,48.2,66.78,55.22,72.68,61.36,81.91,68.93,91,68.34c4.78-.3,9.4-2.8,14.21-3.48a58.27,58.27,0,0,1,18.77.56c10.71,2,20.79,6.64,30.12,12.28-3.21-.52-6.16,1.63-8.92,3.34a40,40,0,0,1-28.62,5.11C108.51,84.51,100,80,94.78,73.51S97.06,59.7,96.05,51.26Z"/><path class="cls-3" d="M53,148.44A81.65,81.65,0,0,1,42.8,134.16a50.89,50.89,0,0,1-5.38-13.1c-1.3-5.55-1.3-11.35-2.67-16.88A35.69,35.69,0,0,0,5.24,78c4.82,3.32,5.08,10.14,6.18,15.89C14.05,107.6,26.68,126,40,130"/><path class="cls-3" d="M50.52,166c7.19,4.38,13.6,5.44,22,5.09a36.91,36.91,0,0,1,5.15-.07c4.15.42,7.88,2.85,10.69,5.93a51.16,51.16,0,0,1,6.81,10.45c-6.49-.91-13.37,1-19.55-1.16-6.52-2.33-10.74-8.88-12.45-15.58"/><path class="cls-3" d="M26.85,193.39c-7.94-1.66-16.34-.56-24.13-2.82a37.54,37.54,0,0,0,40.7,24.9C61.94,212.87,34.27,194.94,26.85,193.39Z"/><path class="cls-3" d="M65.8,216c2.31-.89,4.78-1.33,7.12-2.12a24.53,24.53,0,0,0,11-7.6,21.82,21.82,0,0,1-5.46,25.12c-4.64,4-18.35,8.41-23.5,2.67S60.47,218,65.8,216Z"/><path class="cls-3" d="M68,269.18a66.77,66.77,0,0,1-10.63-1.55,21.24,21.24,0,0,1-7-2.65c-3.28-2.15-5.35-5.65-7.76-8.73a44.39,44.39,0,0,0-41.89-16c2.86,7.39,5.86,15,11.39,20.67s13.48,9.05,21.47,9.86a52.13,52.13,0,0,0,23.63-3.59"/><path class="cls-3" d="M53.35,146.33c.28-1.22-.13-2.09-.35-3.33a26.77,26.77,0,0,0-1.86-6.33,42.34,42.34,0,0,1-3.87-16.3,9.85,9.85,0,0,0-.42-3.25c-.34-.92-1-1.7-1.36-2.59a9.87,9.87,0,0,1-.47-5,46.64,46.64,0,0,1,4.51-16.15c1.35,4.17,2.72,8.41,2.83,12.8S50.27,119.07,47,122"/><path class="cls-3" d="M69.59,272.38a13.44,13.44,0,0,0,7.07-7.91,55,55,0,0,0,1.27-6.28c1.29-6.12,4.82-11.5,8.29-16.71a40.54,40.54,0,0,1,3.18,10.07,13.73,13.73,0,0,1-2.18,10.09c-2.63,3.47-7.16,4.9-11.47,5.53-.32-.28.09.11-.23-.17"/><path class="cls-3" d="M47.83,173.72h.52c-.66-1.85-1.51-3.71-2.17-5.57A67.14,67.14,0,0,0,43.33,161c-3.45-6.93-9.33-12.44-15.95-16.45S13.4,138,6,135.75c1,7.62-.29,16.08,4.1,22.39,2.68,3.85,7,6.14,11.33,8a119.72,119.72,0,0,0,24.08,7.68C46.87,174.14,46.9,174.79,47.83,173.72Z"/><path class="cls-3" d="M72.87,96.55C76,97.5,79.85,98,83,97a38.39,38.39,0,0,0,5-2.35c6.29-3,13.68-.5,20.17,2-4.48,5.66-10,7.81-17.16,7.36-3.32-.2-7.86-3.74-8.48-7"/><path class="cls-3" d="M73.88,85.4c-1.74-3.15-5.36-4.91-8.95-5.32s-7.18.3-10.72,1a11.92,11.92,0,0,0,19.71,4.35c.79.66-.5,8.29-.06,9.23"/><path class="cls-4" d="M149.07,342.71a3.53,3.53,0,0,1,.25-2.1c.84-1.56,3.39-2,5-3.23,2.09-1.58,2.38-4.4,5-5.48a7.52,7.52,0,0,1,5.49.29c1.69.67,3.14,1.66,4.81,2.38,1.33.58,2.91,1.07,3.5,2.15a2.76,2.76,0,0,1,.25,1.57c-.45,6.49-7.92,11.71-11.43,17.33-2.52,4-4.88,2.09-7.68-1.25A21.75,21.75,0,0,1,149.07,342.71Z"/><path class="cls-4" d="M144.73,337.31a40.08,40.08,0,0,1-5-2.26c-2.5-1.55-4.58-4.22-7.44-4.53a2.63,2.63,0,0,0-1.89.42c-1.69,1.3-.4,4.15-.55,6.4s-1.83,3.9-3.28,5.47-2.89,3.67-2.4,5.83a4.85,4.85,0,0,0,1.7,2.58c3,2.49,7.09,2.09,10.78,2.82,5,1,18.54,10.61,20.62,1.49C159,347.85,150.3,339.79,144.73,337.31Z"/><path class="cls-4" d="M142.12,357.31c-4.4.46-8.82-1.21-13.23-.73-1.93.21-4.09,1.12-4.7,3.19-.83,2.82,1.76,5.71,1.29,8.63-.14.86-.54,1.66-.65,2.53a4.81,4.81,0,0,0,2,4.25A10,10,0,0,0,131,376.8c5.1,1,10.62,1.24,15.18-1.52,3.75-2.26,12.76-12.73,12.1-18.06C157.43,350.24,145.65,356.94,142.12,357.31Z"/><path class="cls-3" d="M238,374.31l-4.5-8a32.44,32.44,0,0,0-5-7.2c-1.48-1.49-3.23-2.68-4.71-4.17a20.28,20.28,0,0,1-5.32-12.76,43.21,43.21,0,0,1,1.69-14A24.41,24.41,0,0,1,235,348.18a9.8,9.8,0,0,1-.27,3.89,12.26,12.26,0,0,1-1.5,2.81l-3.45,5.3"/><path class="cls-3" d="M221.64,374.43l.52.52c-2,4-3.82,7.68-5.79,11.66a3.92,3.92,0,0,1-1,1.4,6.29,6.29,0,0,1-2.06.76c-2.77.84-4.39,3.69-5.27,6.45s-1.34,5.72-3,8.1c4.13-.84,8.58-1.87,11.31-5.08,3-3.53,3.88-5.52,1.12-9.24.13.51-.69-2.6-.56-2.09"/><path class="cls-3" d="M320.31,354.8c-6.48-1.38-13.57-3.13-17.46-8.49-4.49-6.18-3.17-15.06-7.11-21.6,3.3,5.35,9.41,8.69,12.07,14.39,1.68,3.61,1.77,7.74,1.54,11.72,0,.32,0,.74.31.86s.51-.54.18-.47"/><path class="cls-3" d="M306.49,369.24c.42,4.24,3.13,8.33,2.08,12.46,3.64-3.12,7-6.94,8.05-11.61.64-2.85,0-10.47-3.92-11.25C308.28,358,306.15,365.9,306.49,369.24Z"/><path class="cls-3" d="M195.34,369.59a18.12,18.12,0,0,1-3.46-16.89c2.08,4.18,7.5,6.4,8.41,11,.68,3.42-.77,8.31-4.77,6.31.48-.33.24.56.73.23"/><path class="cls-3" d="M261.59,351.42a15.1,15.1,0,0,1,8.91,9.69c1.33,4.55.58,15-5.05,8.89C261.45,365.64,260.72,356.92,261.59,351.42Z"/><path class="cls-3" d="M66.79,300.75c-.59,3.26-.13,6.6-.17,9.91a32.26,32.26,0,0,1-3.21,13.61c5.82-.19,12.23-.6,16.43-4.65,3.71-3.57,4.72-9.21,4.06-14.32s-2.76-9.89-4.46-14.75a5.62,5.62,0,0,1-.46-3,5.84,5.84,0,0,1,2-2.84c2.87-2.72,5.91-5.45,9.67-6.65,6.78-2.15,14.48,1.13,21.15-1.35-2.81,5.71-7.13,10.86-12.85,13.66-7.72,3.76-12.35.49-19.84-.78C72.83,288.54,67.82,295.1,66.79,300.75Z"/><path class="cls-4" d="M118.21,30.88a1.85,1.85,0,0,0-1.65.8c-.39.78.23,1.67.85,2.29a12.55,12.55,0,0,0,4.11,3c-1,0-3.21.17-5.45,0a4.12,4.12,0,0,0-2.18.29,1.45,1.45,0,0,0-.74,1.84,2,2,0,0,0,1.06.77,9.54,9.54,0,0,0,9.31-2,12.18,12.18,0,0,0-4.22,8.34,2.29,2.29,0,0,0,.21,1.27,1.68,1.68,0,0,0,1.86.61A3.27,3.27,0,0,0,123,47c2-2.48,1.77-6.09.51-9a12,12,0,0,0,2.63,3.38A4.75,4.75,0,0,0,130,42.63a3,3,0,0,0,2.53-2.84,3.05,3.05,0,0,0-1.63-2.42,5.77,5.77,0,0,0-3-.62,9.65,9.65,0,0,0-4.19,1.14s0,0,0,0a10.56,10.56,0,0,0,4.4-6.66,1.47,1.47,0,0,0-.3-1.51,1.31,1.31,0,0,0-1.08-.14c-2.75.55-3.31,5.95-3.24,8.45C124.52,40,120.39,30.8,118.21,30.88Z"/><path class="cls-4" d="M52.41,240.78a1.86,1.86,0,0,0-1.65.8c-.4.78.22,1.68.84,2.3a12.62,12.62,0,0,0,4.11,3c-1,0-3.21.18-5.45,0a4.24,4.24,0,0,0-2.18.29,1.45,1.45,0,0,0-.74,1.84,1.91,1.91,0,0,0,1.06.77,9.54,9.54,0,0,0,9.31-1.95,12.24,12.24,0,0,0-4.22,8.35,2.17,2.17,0,0,0,.22,1.26,1.66,1.66,0,0,0,1.85.62,3.41,3.41,0,0,0,1.65-1.23c2-2.49,1.76-6.1.5-9a12.18,12.18,0,0,0,2.63,3.38,4.76,4.76,0,0,0,3.85,1.26,3,3,0,0,0,2.54-2.85,3.08,3.08,0,0,0-1.63-2.41,5.84,5.84,0,0,0-3-.63,9.94,9.94,0,0,0-4.19,1.14s0,0,0,0a10.54,10.54,0,0,0,4.4-6.67,1.47,1.47,0,0,0-.29-1.5,1.37,1.37,0,0,0-1.09-.15c-2.75.55-3.31,6-3.24,8.45C58.71,249.9,54.58,240.7,52.41,240.78Z"/><path class="cls-4" d="M283.41,358.78a1.86,1.86,0,0,0-1.65.8c-.4.78.22,1.68.84,2.3a12.62,12.62,0,0,0,4.11,3c-1,0-3.21.18-5.45.05a4.24,4.24,0,0,0-2.18.29,1.45,1.45,0,0,0-.74,1.84,1.91,1.91,0,0,0,1.06.77,9.54,9.54,0,0,0,9.31-2,12.24,12.24,0,0,0-4.22,8.35,2.17,2.17,0,0,0,.22,1.26,1.66,1.66,0,0,0,1.85.62,3.41,3.41,0,0,0,1.65-1.23c2-2.49,1.76-6.1.5-9a12.18,12.18,0,0,0,2.63,3.38,4.76,4.76,0,0,0,3.85,1.26,3,3,0,0,0,2.54-2.85,3.08,3.08,0,0,0-1.63-2.41,5.84,5.84,0,0,0-3-.63,9.94,9.94,0,0,0-4.19,1.14s0,0,0,0a10.54,10.54,0,0,0,4.4-6.67,1.47,1.47,0,0,0-.29-1.5,1.37,1.37,0,0,0-1.09-.15c-2.75.55-3.31,5.95-3.24,8.45C289.71,367.9,285.58,358.7,283.41,358.78Z"/><path class="cls-3" d="M171.63,11.3c3.74,5.48,7.65,11.64,6.76,18.21-1,7.57-8.1,13.08-9.78,20.52,1.32-6.15-.8-12.78,1.22-18.74,1.27-3.77,4.07-6.82,7-9.53.24-.22.5-.54.37-.84s-.74,0-.46.21"/><path class="cls-3" d="M149.78,19.69A18.12,18.12,0,0,1,146.31,2.8c2.08,4.19,7.5,6.4,8.41,11,.68,3.42-.76,8.31-4.76,6.31.48-.33.24.56.72.23"/><path class="cls-3" d="M203.45,5.91A18.12,18.12,0,0,1,200,22.8c-.26-4.66-4.37-8.84-3.39-13.41.72-3.41,4-7.34,6.87-3.92-.58.11,0-.61-.58-.5"/><path class="cls-3" d="M138.82,27.31a10.15,10.15,0,0,0-5.46-2.95,23,23,0,0,0-3.42.08c-4.32.11-7.69-3.32-10.56-6.52a11,11,0,0,1,11.57.16c1.77,1,3.27,4.3,2.68,6.41"/></svg>